<svg xmlns="http://www.w3.org/2000/svg" viewBox="0 0 48 48">
  <defs>
    <linearGradient id="fv-bg" x1="4" y1="3" x2="44" y2="45" gradientUnits="userSpaceOnUse">
      <stop offset="0" stop-color="#15112B"/>
      <stop offset="0.55" stop-color="#07070D"/>
      <stop offset="1" stop-color="#020204"/>
    </linearGradient>
    <linearGradient id="fv-stroke" x1="12" y1="8" x2="37" y2="40" gradientUnits="userSpaceOnUse">
      <stop offset="0" stop-color="#F4F0FF"/>
      <stop offset="0.42" stop-color="#8B5CF6"/>
      <stop offset="1" stop-color="#22D3EE"/>
    </linearGradient>
    <filter id="fv-glow" x="-35%" y="-35%" width="170%" height="170%" color-interpolation-filters="sRGB">
      <feGaussianBlur stdDeviation="1.5" result="blur"/>
      <feMerge>
        <feMergeNode in="blur"/>
        <feMergeNode in="SourceGraphic"/>
      </feMerge>
    </filter>
  </defs>

  <rect width="48" height="48" rx="9" fill="url(#fv-bg)"/>
  <circle cx="34" cy="14" r="8" fill="#22D3EE" opacity="0.12"/>
  <circle cx="18" cy="35" r="11" fill="#8B5CF6" opacity="0.18"/>

  <g filter="url(#fv-glow)">
    <path d="M14 34V15.5c0-2.8 2.2-5 5-5h7c6.1 0 11 4.9 11 11s-4.9 11-11 11h-6" fill="none" stroke="url(#fv-stroke)" stroke-width="4.6" stroke-linecap="round" stroke-linejoin="round"/>
    <path d="M22 25l12.5 10.8" fill="none" stroke="url(#fv-stroke)" stroke-width="4.6" stroke-linecap="round"/>
    <path d="M27 14.5c4 1.9 6.4 5.8 6.4 10" fill="none" stroke="#C4B5FD" stroke-width="1.8" stroke-linecap="round" opacity="0.92"/>
    <path d="M38 16c3.7 3.8 3.7 9.9 0 13.7" fill="none" stroke="#22D3EE" stroke-width="1.9" stroke-linecap="round" opacity="0.82"/>
  </g>
</svg>
